# xmcd CD database file
#
# Track frame offsets:
#	150
#	15168
#	29212
#	41268
#	57755
#	70561
#	83626
#	96959
#	106836
#	118924
#	129642
#	142727
#	157076
#	170238
#	183147
#	195282
#	207849
#	220668
#	234081
#	247163
#
# Disc length: 3479 seconds
#
# Revision: 8
# Processed by: cddbd v1.5.2PL0 Copyright (c) Steve Scherf et al.
# Submitted via: CDex 1.51
#
DISCID=070d9514
DTITLE=Benny Goodman - Vol.09 - I Had To Do It
DYEAR=1900
DGENRE=Jazz
TTITLE0=The Flat Floogee
TTITLE1=I've Got A Date With A Dream
TTITLE2=Could You Pass In Love ¿
TTITLE3=Blue Interlude
TTITLE4=When I Got A-Dreamin'
TTITLE5=You're A Little Headache
TTITLE6=I Have Eyes
TTITLE7=Margie
TTITLE8=What Have You Got That Gets Me ¿
TTITLE9=Russian Lullaby
TTITLE10=Is That The Way To Treat A Sweetheart ¿
TTITLE11=I Had To Do It
TTITLE12=You're Lovely, Madame
TTITLE13=Bumble Bee Stomp
TTITLE14=Ciribiribin
TTITLE15=This Can't Be Love
TTITLE16=Sing For Your Supper
TTITLE17=Topsy
TTITLE18=Smoke House Rythm
TTITLE19=I Must See Annie Tonight
EXTD=
EXTT0=
EXTT1=
EXTT2=
EXTT3=
EXTT4=
EXTT5=
EXTT6=
EXTT7=
EXTT8=
EXTT9=
EXTT10=
EXTT11=
EXTT12=
EXTT13=
EXTT14=
EXTT15=
EXTT16=
EXTT17=
EXTT18=
EXTT19=
PLAYORDER=
